<?xml version="1.0" standalone="no"?>
<!DOCTYPE svg PUBLIC "-//W3C//DTD SVG 20010904//EN"
 "http://www.w3.org/TR/2001/REC-SVG-20010904/DTD/svg10.dtd">
<svg version="1.0" xmlns="http://www.w3.org/2000/svg"
 width="274.000000pt" height="242.000000pt" viewBox="0 0 274.000000 242.000000"
 preserveAspectRatio="xMidYMid meet">

<g transform="translate(0.000000,242.000000) scale(0.100000,-0.100000)"
fill="#000000" stroke="none">
<path d="M1029 1676 c-19 -6 -37 -15 -41 -20 -4 -6 -8 -7 -8 -3 0 5 -16 -11
-35 -35 -19 -23 -39 -48 -44 -54 -6 -7 -8 -14 -5 -17 3 -2 -1 -22 -9 -43 -7
-22 -12 -53 -11 -69 4 -47 -5 -66 -29 -64 -49 3 -65 -1 -63 -18 1 -22 21 -31
64 -32 l34 -1 -3 -275 -4 -275 -32 -1 c-51 -2 -56 -3 -60 -14 -1 -5 2 -17 7
-25 8 -12 40 -15 191 -15 182 0 182 0 184 22 1 13 -1 23 -4 24 -3 0 -15 2 -26
3 -11 1 -36 6 -57 10 l-36 7 1 267 2 267 95 5 c93 5 95 6 95 29 0 24 -1 25
-97 24 l-96 0 3 91 c2 50 3 99 4 109 1 25 37 57 65 57 13 0 34 -8 46 -18 19
-15 23 -30 25 -83 4 -83 3 -81 14 -75 5 3 28 8 52 11 91 11 99 16 93 50 -16
87 -82 166 -131 157 -7 -2 -13 1 -13 5 0 11 -130 10 -171 -1z"/>
<path d="M1685 1390 c-4 -6 -16 -10 -26 -7 -10 3 -21 1 -24 -3 -3 -5 -13 -8
-23 -7 -22 1 -112 -62 -112 -79 0 -7 -3 -14 -7 -16 -10 -4 -44 -75 -51 -103
-2 -11 -5 -72 -5 -135 -1 -104 1 -120 24 -171 31 -66 96 -136 136 -145 15 -4
33 -9 38 -13 6 -3 44 -6 85 -7 59 -1 87 4 129 22 53 24 105 70 95 86 -3 4 0 8
7 8 7 0 9 3 6 6 -3 4 -2 15 4 26 9 16 4 21 -33 37 -46 20 -62 15 -64 -22 -3
-59 -37 -94 -104 -103 -61 -9 -104 16 -132 74 -20 42 -22 63 -23 197 0 162 4
194 29 244 21 40 54 55 100 47 35 -7 70 -41 60 -58 -3 -4 -2 -8 3 -8 11 0 19
-105 11 -140 -3 -15 8 -16 77 -7 78 11 82 15 81 65 -1 26 -7 57 -13 68 -7 12
-9 24 -6 28 3 3 1 6 -5 6 -7 0 -12 6 -12 14 0 26 -89 82 -145 91 -11 2 -36 7
-56 10 -24 5 -39 3 -44 -5z"/>
</g>
</svg>
